<svg width="50" height="50" viewBox="0 0 50 50" fill="none" xmlns="http://www.w3.org/2000/svg">
<path d="M27.4409 6.25H18.7501C14.8217 6.25 12.8575 6.25 11.6371 7.47039C10.4167 8.69078 10.4167 10.655 10.4167 14.5833V35.4167C10.4167 39.345 10.4167 41.3092 11.6371 42.5296C12.8575 43.75 14.8217 43.75 18.7501 43.75H31.2501C35.1785 43.75 37.1426 43.75 38.363 42.5296C39.5834 41.3092 39.5834 39.345 39.5834 35.4167V18.3926C39.5834 17.541 39.5834 17.1152 39.4248 16.7324C39.2662 16.3495 38.9652 16.0484 38.363 15.4463L30.3871 7.47039C29.785 6.86824 29.4839 6.56717 29.1011 6.40858C28.7182 6.25 28.2924 6.25 27.4409 6.25Z" stroke="#333333" stroke-opacity="0.34" stroke-width="2"/>
<path d="M18.75 27.0833L31.25 27.0833" stroke="#333333" stroke-opacity="0.27" stroke-width="2" stroke-linecap="round"/>
<path d="M18.75 35.4167L27.0833 35.4167" stroke="#333333" stroke-opacity="0.25" stroke-width="2" stroke-linecap="round"/>
<path d="M27.0833 6.25V14.5833C27.0833 16.5475 27.0833 17.5296 27.6934 18.1398C28.3036 18.75 29.2857 18.75 31.2499 18.75H39.5833" stroke="#333333" stroke-opacity="0.39" stroke-width="2"/>
</svg>
